# xmcd
#
# Track frame offsets:
#	6393
#	8228
#	34538
#	64289
#	95513
#	122467
#	139107
#	166970
#	192524
#	216291
#
# Disc length: 3275 seconds
#
# Revision: 6
# Processed by: cddbd v1.5.2PL0 Copyright (c) Steve Scherf et al.
# Submitted via: EasyCDDAExtractor 2010.6.0.0
#
DISCID=940c760a
DTITLE=Lemon Jelly - '64-'95
DYEAR=2005
DGENRE=Electronica/Dance
TTITLE0=It Was...
TTITLE1='88 aka Come Down On Me
TTITLE2='68 aka Only Time
TTITLE3='93 aka Don't Stop Now
TTITLE4='95 aka Make Things Right
TTITLE5='79 aka The Shouty Track
TTITLE6='75 aka Stay With You
TTITLE7='76 aka The Slow Train
TTITLE8='90 aka A Man Like Me
TTITLE9='64 aka Go
EXTD=YEAR: 2005
EXTT0=
EXTT1=
EXTT2=
EXTT3=
EXTT4=
EXTT5=
EXTT6=
EXTT7=
EXTT8=
EXTT9=
PLAYORDER=
